<?xml version="1.0" encoding="UTF-8"?>
<svg width="197px" height="62px" viewBox="0 0 197 62" version="1.1" xmlns="http://www.w3.org/2000/svg" xmlns:xlink="http://www.w3.org/1999/xlink">
    <!-- Generator: Sketch 52.4 (67378) - http://www.bohemiancoding.com/sketch -->
    <title>logo</title>
    <desc>Created with Sketch.</desc>
    <g id="Page-1" stroke="none" stroke-width="1" fill="none" fill-rule="evenodd">
        <g id="logo">
            <path d="M183.214694,37.6937691 C186.580292,37.6937691 188.435918,39.8779956 188.435918,43.8476688 L188.435918,60.4468845 L196.795335,60.4468845 L196.795335,41.1694989 C196.795335,34.2678867 193.01586,30.1441394 186.684898,30.1441394 C182.273236,30.1441394 179.794519,32.5549455 177.952536,34.9113725 L177.820641,35.083573 L177.820641,30.7015251 L169.461224,30.7015251 L169.461224,60.4468845 L177.820641,60.4468845 L177.820641,43.8476688 C177.820641,39.9369063 179.785423,37.6937691 183.214694,37.6937691" id="Path" fill="#231F20"></path>
            <path d="M158.122799,45.7418736 C158.166031,47.8562673 157.424261,49.912127 156.039767,51.5151198 C154.565869,53.1295137 152.457636,54.0217214 150.268222,53.9576471 C148.07844,53.9796691 145.982837,53.0716306 144.505773,51.4607407 C143.066982,49.8586819 142.281757,47.7782799 142.30449,45.6285839 L142.30449,45.5198257 C142.260395,43.4052915 143.002273,41.349134 144.387522,39.7465795 C145.860374,38.1334057 147.966675,37.2413127 150.154519,37.3040523 C152.344536,37.2808742 154.440592,38.189109 155.916968,39.8009586 C157.354696,41.4018592 158.139845,43.4804459 158.118251,45.6285839 L158.122799,45.7418736 Z M150.268222,30.1441394 C145.956123,30.0843276 141.792336,31.7112559 138.670554,34.6757298 C135.702068,37.5463285 134.035223,41.4978693 134.054227,45.6195207 L134.054227,45.7328105 C134.030692,49.8291533 135.686616,53.7575142 138.638717,56.6086275 C145.177545,62.6059574 155.2464,62.5822731 161.756735,56.5542484 C164.725134,53.6820939 166.390477,49.7285843 166.368513,45.6059259 L166.368513,45.4971678 C166.392711,41.4015987 164.738554,37.4735344 161.788571,34.6213508 C158.684162,31.6842824 154.548709,30.0754742 150.268222,30.1396078 L150.268222,30.1441394 Z" id="Shape" fill="#231F20" fill-rule="nonzero"></path>
            <polygon id="Path" fill="#231F20" points="126.690845 60.4468845 136.250962 60.4468845 124.485015 42.3884967 124.525948 42.3431808 135.818892 30.7015251 125.84035 30.7015251 115.770845 41.6951634 115.770845 20.7320261 107.415977 20.7320261 107.415977 60.4468845 115.770845 60.4468845 115.770845 51.4018301 115.793586 51.3791721 118.827172 48.1889325"></polygon>
            <path d="M85.8988921,61.0042702 C90.3105539,61.0042702 92.7892711,58.5934641 94.6312536,56.237037 L94.7631487,56.0648366 L94.7631487,60.4468845 L103.122566,60.4468845 L103.122566,30.7015251 L94.7631487,30.7015251 L94.7631487,47.3052723 C94.7631487,51.2115033 92.7983673,53.4546405 89.3690962,53.4546405 C85.9398251,53.4546405 84.1478717,51.2704139 84.1478717,47.3052723 L84.1478717,30.7015251 L75.7884548,30.7015251 L75.7884548,49.9789107 C75.7884548,56.8805229 79.56793,61.0042702 85.8988921,61.0042702" id="Path" fill="#231F20"></path>
            <polygon id="Path" fill="#231F20" points="69.8395335 22 60.283965 37.3167756 60.2202915 37.212549 50.8966764 22 41 22 55.995102 45.1247059 55.995102 60.8901089 64.4636735 60.8901089 64.4636735 44.957037 64.4773178 44.9389107 79.4587755 22"></polygon>
            <polygon id="Path" fill="#F2A900" points="150.2 0.172200436 147.211895 9.73385621 140.730845 2.08453159 141.640466 12.0540305 132.717085 7.45899782 137.387988 16.3227887 127.377609 15.4844444 135.095743 21.8921133 125.526531 24.9282789 133.744956 27.4795643 140.817259 19.9525926 143.705306 23.0295425 150.277318 16.0327669 156.849329 23.0295425 159.741924 19.9525926 166.73691 27.4025272 175.046297 24.76061 165.454344 21.7833551 173.126997 15.3258388 163.121166 16.2366885 167.732945 7.34117647 158.836851 11.9951198 159.682799 2.01655773 153.251778 9.71119826"></polygon>
            <path d="M2.45753795,60.4409149 C2.2637303,60.4409149 1.96333295,60.4129609 1.55633688,60.3570521 C1.24624464,60.0402356 0.970072884,59.606949 0.727813321,59.0571792 C0.485553759,58.5074094 0.301439253,57.9203758 0.175464281,57.296061 C0.0494893083,56.6717461 -0.00865211452,56.0474406 0.00103826798,55.4231258 C0.0107286505,54.7988109 0.122166378,54.2443904 0.335354793,53.7598475 C0.335354793,53.7412113 0.427412045,53.5175794 0.611529313,53.0889454 C0.79564658,52.6603113 1.03305739,52.1152087 1.32376887,51.4536213 C1.61448034,50.792034 1.9439484,50.0559126 2.31218294,49.2452351 C2.68041747,48.4345576 3.04864648,47.6378692 3.41688102,46.8551461 C3.78511555,46.072423 4.13880921,45.3595966 4.4779726,44.7166455 C4.81713598,44.0736944 5.11268822,43.5751818 5.36463816,43.2210928 C5.53906505,42.9601851 5.69895396,42.7085993 5.8443097,42.4663278 C5.98966543,42.2240564 6.13017387,42.0004246 6.26583923,41.7954257 C6.47902764,41.4599729 6.6776775,41.1478202 6.86179477,40.8589581 C7.04591204,40.570096 7.24940702,40.3091922 7.47228582,40.0762389 C7.69516461,39.8432856 7.94226566,39.6382897 8.21359637,39.4612452 C8.48492708,39.2842007 8.81439514,39.1304539 9.20201044,39 C9.43457962,39.0931813 9.6380746,39.1910202 9.81250149,39.2935197 C9.98692837,39.3960191 10.1419722,39.521812 10.2776375,39.6709022 L10.3648505,40.0622618 C10.4036121,40.1927156 10.4665986,40.2812365 10.553812,40.3278272 C10.6410255,40.3744179 10.7137023,40.3977128 10.7718446,40.3977128 C11.0237945,40.4536216 11.2418248,40.5141886 11.4259421,40.5794155 C11.6100594,40.6446424 11.8087092,40.6865734 12.0218977,40.7052097 C12.0994207,40.8170272 12.1720975,40.9288432 12.2399302,41.0406607 C12.3077628,41.1524783 12.3804396,41.2549762 12.4579627,41.3481576 C12.845578,41.8886092 13.1653558,42.4104168 13.4173058,42.9135959 C13.6692557,43.4167751 13.6692557,43.9665366 13.4173058,44.5628971 L13.4463768,44.8703939 C13.5432806,45.0008478 13.5917318,45.1219817 13.5917318,45.2337992 C13.5917318,45.3456168 13.5723513,45.5040227 13.5335898,45.7090216 C13.514209,45.8581117 13.4996736,46.0211766 13.4899833,46.1982211 C13.4802929,46.3752656 13.5045185,46.5662844 13.5626608,46.7712834 L13.7661578,46.9949174 C14.07625,47.1440075 14.3766474,47.2185515 14.6673588,47.2185515 C15.0549741,47.2185515 15.4038227,47.1346895 15.7139149,46.9669632 C16.0240072,46.7992368 16.3147143,46.6315129 16.586045,46.4637865 C16.7992334,46.3146964 16.9978833,46.1935625 17.1820005,46.1003812 C17.3661178,46.0071999 17.5453872,45.9419739 17.7198141,45.9047014 C18.1268101,45.5319761 18.4998843,45.2011874 18.8390477,44.9123253 C19.178211,44.6234632 19.5319047,44.3299464 19.9001392,44.0317662 C20.5978468,43.4913145 21.2761634,42.90894 21.9351094,42.2846252 C22.5940554,41.6603103 23.1173282,40.8822579 23.5049435,39.9504447 C23.7181319,39.8199909 23.9603878,39.7547649 24.2317185,39.7547649 C24.5030493,39.7547649 24.7743759,39.8060139 25.0457066,39.9085133 C25.3170373,40.0110128 25.588364,40.1274877 25.8596947,40.2579416 C25.917837,40.2952141 25.9711333,40.3231681 26.0195852,40.3418043 C26.0680371,40.3604406 26.1213334,40.3883946 26.1794757,40.4256671 C26.1794757,40.630666 26.2666878,40.8170258 26.4411147,40.9847522 C26.5380185,41.0592973 26.6058502,41.1058872 26.6446117,41.1245235 L26.7608957,41.180432 C26.9159419,41.2736133 27.0467601,41.3574753 27.1533543,41.4320203 C27.2599485,41.5065654 27.3423155,41.6090633 27.4004578,41.7395172 C27.5748847,42.2426963 27.8655918,42.634052 28.2725878,42.9135959 C28.2338263,43.1185948 28.2435166,43.3189317 28.3016588,43.5146125 C28.3598011,43.7102932 28.4276328,43.9013121 28.5051559,44.0876747 C28.5439174,44.1622198 28.5729881,44.2321047 28.5923689,44.2973316 C28.6117496,44.3625586 28.6408203,44.4417615 28.6795819,44.5349428 L28.0400198,44.4790343 L28.1272328,45.094028 C28.1853751,45.4108444 28.1611495,45.7649282 28.0545553,46.1562897 C27.9479611,46.5476513 27.8268332,46.855145 27.6911678,47.0787802 C27.7299293,47.6378681 27.7493098,48.0804727 27.7493098,48.4066074 C27.7493098,48.732742 27.7299293,49.0355767 27.6911678,49.3151207 C27.6524063,49.5946647 27.5894197,49.8602275 27.5022063,50.111817 C27.4149928,50.3634066 27.3035551,50.6289694 27.1678898,50.9085133 C27.2454128,52.3248694 27.0758337,53.6200704 26.6591472,54.794155 C26.2424608,55.9682397 25.7918648,57.0677628 25.3073456,58.0927573 C25.2492033,58.2232112 25.1910619,58.3443451 25.1329196,58.4561626 C25.0747773,58.5679802 25.0263261,58.6797961 24.9875646,58.7916137 C24.7743762,58.8475225 24.5805714,58.9127485 24.4061446,58.9872935 C24.2317177,59.0618386 24.0669836,59.1457005 23.9119375,59.2388818 C23.6987491,59.3693357 23.4855639,59.4764926 23.2723755,59.5603558 C23.0591871,59.644219 22.8363116,59.6861499 22.6037424,59.6861499 C21.6734657,59.0338807 21.193799,57.9064036 21.1647278,56.3036849 C21.1356567,54.7009661 21.4893503,52.6603258 22.2258194,50.1817027 C22.3614848,50.0885213 22.4196262,49.9487515 22.4002454,49.7623888 L22.4002454,49.454892 L22.1095354,49.4269377 C22.0126316,49.4269377 21.9254194,49.4362557 21.8478964,49.454892 C21.7703733,49.4735283 21.7122319,49.5573902 21.6734704,49.7064803 C21.0532859,50.1351144 20.3798144,50.577719 19.6530357,51.0343075 C18.926257,51.490896 18.1752636,51.9102056 17.400033,52.292249 C16.6248024,52.6742925 15.8350481,52.9911042 15.0307464,53.2426938 C14.2264446,53.4942833 13.4463805,53.6200762 12.6905307,53.6200762 C10.7524542,53.6200762 9.28922839,52.669641 8.30080938,50.7687421 L8.03917036,50.2655654 L7.74846034,50.7128335 C7.69031804,50.8060149 7.58857055,50.9877157 7.44321481,51.2579416 C7.29785908,51.5281674 7.15250552,51.8403201 7.00714978,52.1944091 C6.86179405,52.5484982 6.73582096,52.9118999 6.62922675,53.2846252 C6.52263255,53.6573504 6.48871672,53.9834802 6.52747825,54.2630241 C6.29490907,54.468023 6.06718849,54.7009729 5.8443097,54.9618806 C5.6214309,55.2227883 5.46154199,55.520964 5.36463816,55.8564168 C5.32587663,55.9495981 5.31618639,56.038119 5.33556716,56.1219822 C5.35494792,56.2058454 5.38401864,56.2943663 5.42278017,56.3875476 C5.4033994,56.5180015 5.36463845,56.6111814 5.30649616,56.6670902 C5.24835386,56.722999 5.1805222,56.778907 5.10299914,56.8348158 C5.00609532,56.9279971 4.90919295,57.025836 4.81228912,57.1283355 C4.7153853,57.2308349 4.62817316,57.3473098 4.5506501,57.4777637 C4.51188857,57.5895812 4.48281786,57.7060561 4.4634371,57.8271919 C4.44405633,57.9483276 4.42467586,58.0554845 4.40529509,58.1486658 C4.40529509,58.3536647 4.37622438,58.4934346 4.31808209,58.5679797 C4.12427444,58.9593412 3.95469529,59.280812 3.80933955,59.5324015 C3.66398381,59.7839911 3.52347537,59.9750099 3.38781002,60.1054638 C3.25214466,60.2359176 3.11163622,60.3244386 2.96628049,60.3710292 C2.82092475,60.4176199 2.6513456,60.4409149 2.45753795,60.4409149 Z M38.1276576,52.72554 C37.9919922,52.8373576 37.8757094,52.9724685 37.7788055,53.1308767 C37.6819017,53.289285 37.5849993,53.4523499 37.4880955,53.6200762 C37.3911917,53.8250751 37.2845991,54.020753 37.1683145,54.2071156 C37.0520299,54.3934783 36.9066764,54.5612021 36.7322495,54.7102922 C36.6353456,54.9898362 36.5384433,55.208809 36.4415394,55.3672173 C36.3446356,55.5256255 36.1895918,55.7073264 35.9764034,55.9123253 C35.7825958,56.6577759 35.3271546,57.4684412 34.6100663,58.3443456 C34.5906855,58.512072 34.5373892,58.6751369 34.4501758,58.8335451 C34.3629624,58.9919534 34.2709051,59.1457002 34.1740013,59.2947903 C34.1352397,59.3506991 34.0964788,59.4112661 34.0577173,59.476493 C34.0189557,59.5417199 33.989885,59.5929689 33.9705043,59.6302414 L33.9123623,59.909784 C33.8154584,60.0588741 33.7088658,60.189326 33.5925812,60.3011436 L33.2728002,60.6086404 C33.2340387,60.6645492 33.166207,60.7390931 33.0693032,60.8322745 L32.6332382,61 C31.2184423,60.8136374 30.3560112,60.086834 30.045919,58.819568 L30.07499,58.5400254 C30.1137515,58.4468441 30.1476673,58.3490052 30.1767385,58.2465057 C30.2058096,58.1440063 30.2397255,58.0368494 30.278487,57.9250318 C30.3560101,57.6641241 30.4480673,57.4032203 30.5546615,57.1423126 C30.6612557,56.8814049 30.8211446,56.6484551 31.034333,56.4434562 C31.0730946,56.3130023 31.1603067,56.1033475 31.2959721,55.8144854 C31.4316374,55.5256233 31.6642031,55.0923366 31.9936761,54.5146125 C32.2650068,54.0673421 32.478192,53.7132584 32.6332382,53.4523507 C32.7882843,53.191443 32.9142574,52.9864472 33.0111612,52.8373571 C32.8173535,52.5391768 32.5847879,52.268955 32.3134571,52.0266836 C32.0615072,51.560777 31.8434769,51.1135134 31.6593596,50.6848793 C31.4752423,50.2562452 31.3347339,49.8742075 31.2378301,49.5387548 C31.2184493,49.2964833 31.1893786,49.0914875 31.1506171,48.9237611 C31.1118555,48.7560347 31.0730946,48.5789929 31.034333,48.3926302 C30.9761908,48.1876313 30.9277396,47.9826355 30.888978,47.7776366 C30.8502165,47.5726377 30.830836,47.3583239 30.830836,47.1346887 C30.7339322,47.0042348 30.6757908,46.8737829 30.65641,46.7433291 L30.714552,46.4637865 C30.7726943,46.3333327 30.7823846,46.1609498 30.743623,45.9466328 C30.7048615,45.7323157 30.6564103,45.5133429 30.598268,45.2897078 C30.5595065,45.1033451 30.5159004,44.8983493 30.4674485,44.6747141 C30.4189966,44.4510789 30.4044612,44.2274471 30.423842,44.0038119 C30.4432228,43.7801768 30.5062093,43.5705219 30.6128035,43.3748412 C30.7193977,43.1791604 30.8986671,43.0067775 31.1506171,42.8576874 L31.6448241,42.8297332 C31.819251,42.9229145 31.9888301,43.0114354 32.1535666,43.0952986 C32.3183031,43.1791618 32.478192,43.2676827 32.6332382,43.360864 C32.8464266,43.4540454 33.0499216,43.5472253 33.2437292,43.6404066 C33.4375369,43.7335879 33.6410318,43.8547218 33.8542203,44.0038119 L34.0577173,44.3951715 L34.4356403,44.7026684 L34.4356403,45.0101652 C34.4550211,45.0847102 34.4647113,45.1872082 34.4647113,45.317662 C34.4647113,45.5599334 34.5034722,45.7090213 34.5809953,45.7649301 L34.6972793,46.1003812 C34.6972793,46.3612889 34.72635,46.6082157 34.7844923,46.841169 C34.8426346,47.0741223 34.900776,47.2930951 34.9589183,47.498094 C35.0170606,47.7030929 35.0752021,47.9174068 35.1333443,48.1410419 C35.1914866,48.3646771 35.2011769,48.6069449 35.1624154,48.8678526 C35.2786999,48.8119438 35.3756023,48.7467179 35.4531254,48.6721728 C35.4918869,48.6349003 35.5306479,48.6069463 35.5694094,48.58831 C35.6081709,48.5696738 35.6469319,48.5417198 35.6856934,48.5044473 L37.4008825,46.2681067 L37.3427405,45.9885642 L37.9532316,45.429479 C38.1082777,45.2803889 38.2584764,45.140619 38.4038321,45.0101652 C38.5491878,44.8797113 38.6703158,44.7399414 38.7672196,44.5908513 L39.0870006,44.3672173 C39.7071851,43.4354041 40.5889967,42.8576885 41.7324618,42.6340534 L42.1394559,42.5781449 L42.2557399,42.9415502 C42.3332629,43.1465491 42.4931518,43.3329089 42.7354114,43.5006353 C42.977671,43.6683617 43.2344623,43.8267676 43.505793,43.9758577 L43.767432,44.1435832 C43.8643358,44.3299459 43.912787,44.4697158 43.912787,44.5628971 C43.912787,44.6560784 43.9030968,44.7399403 43.883716,44.8144854 L44,45.094028 C43.8449539,45.5412983 43.6559943,45.867428 43.4331155,46.0724269 C43.2102367,46.2774258 42.9922063,46.4637857 42.7790179,46.6315121 C42.604591,46.7806022 42.4447021,46.9157131 42.2993464,47.0368488 C42.1539906,47.1579845 42.0425529,47.3117314 41.9650299,47.498094 L41.7615328,47.7217281 C41.3545368,47.9453633 41.0929004,48.243539 40.9766158,48.6162643 L40.8894028,48.9517154 L40.5405507,48.9517154 C40.52117,48.9517154 40.4775639,48.9843283 40.4097312,49.0495553 C40.3418986,49.1147822 40.2401511,49.2778471 40.1044857,49.5387548 C39.9688204,49.7251174 39.871918,49.8462513 39.8137757,49.9021601 L39.6684207,50.0419314 C39.6490399,50.1164764 39.6248143,50.1863614 39.5957432,50.2515883 C39.566672,50.3168152 39.5327562,50.3960182 39.4939947,50.4891995 C39.2420447,50.7314709 39.0870009,50.9131718 39.0288586,51.0343075 C38.9707163,51.1554432 38.9028847,51.2905541 38.8253616,51.4396442 C38.7478386,51.5887343 38.6751618,51.7331632 38.6073291,51.8729352 C38.5394964,52.0127072 38.4280587,52.1571361 38.2730126,52.3062262 L38.1276576,52.72554 Z" id="My" fill="#F3B229"></path>
        </g>
    </g>
</svg>